<?xml version="1.0" encoding="UTF-8"?>
<svg id="Layer_1" xmlns="http://www.w3.org/2000/svg" version="1.1" viewBox="0 0 1080 1080">
  <!-- Generator: Adobe Illustrator 29.3.1, SVG Export Plug-In . SVG Version: 2.1.0 Build 151)  -->
  <defs>
    <style>
      .st0 {
        fill: #357c35;
      }

      .st1 {
        fill: #fff;
      }
    </style>
  </defs>
  <g id="PVTPbe">
    <path class="st0" d="M808,121.4c-185.5-2.1-371.8,3.9-557.5,1.2-71.9,9.3-117.9,63.4-122.3,134.8v568.3c1.8,67.2,53,126.9,120.8,133.3h580.7c68.5-5.1,119.6-66.4,122.3-133.3V262.1c-3.1-82.8-60.9-139.7-143.9-140.7ZM846.1,533.6c-6.5,24.5-22,47.8-45.2,59.1-32.1,15.5-90,16.6-126,19-7.1.5-18.3.7-20.6,7.9-7.5,23.6-4.8,64.8-7.1,90.8-1.2,14.1-5.8,30.6-6.3,44.3-.3,4.5-.3,9.3,3.1,12.7,5.5,5.6,31.8,7.9,41.4,10.6,5,1.4,25.5,8.4,28.8,10.6,17.5,11.4,10.9,24.9-5.5,32.3-24.6,11.3-80.5,19.6-108.1,21.2-67.3,3.9-174.3,4.2-236.8-20.3-8.8-3.5-24-12.6-18.9-23.8,1.2-2.4,12.2-10.6,14.9-11.8,5.8-2.5,19.8-6.8,26.2-8.6,9.4-2.5,33.9-3.7,37.7-12.7,2.1-5-.9-29.2-4.7-33.1-5.2-5.5-30.6-2.5-39.4-3.1-16.9-1.2-28.3-5.2-43.6-8.4-25.4-5.4-59.2-6.9-75.6-30.3-32.5-46.4-50.8-178.4,10.1-209.4,48.6-24.6,76.9,11.7,87.4,55.3,8,33.4.4,73.1,32.7,96.5,9,6.5,17.3,10.3,14.3-4.8-3.9-20.8-16.8-47.1-22.4-68.9-13.4-50.6-25.4-124.4-22.7-176.4,3.4-64.3,63.3-128.1,127.6-132.8,48.7-3.5,86.7,4.5,121.1,40.5,39.2,41.1,47.5,116.3,49.6,171.3.8,22-2,44.8,1.4,66.4,11.1,7.7,38.5-19.6,45.1-27.8,17.8-21.6,14.7-54.5,22-80.5,10.2-35.8,27.4-62.3,69.3-58.2,25.3,2.6,41.9,25.8,50,47.9,8.9,24.8,6.7,98.8-.1,124.7Z"/>
  </g>
  <g id="PVTPbe1" data-name="PVTPbe">
    <g>
      <path class="st0" d="M487.8-750.9c-74.8-.8-150,1.6-225,.5-29,3.8-47.6,25.6-49.4,54.4v229.3c.7,27.1,21.4,51.2,48.7,53.8h234.3c27.6-2.1,48.2-26.8,49.4-53.8v-227.4c-1.3-33.4-24.6-56.4-58.1-56.8ZM503.2-584.6c-2.6,9.9-8.9,19.3-18.2,23.8-12.9,6.2-36.3,6.7-50.8,7.7-2.9.2-7.4.3-8.3,3.2-3,9.5-2,26.2-2.9,36.6-.5,5.7-2.3,12.4-2.5,17.9-.1,1.8-.1,3.8,1.3,5.1,2.2,2.3,12.8,3.2,16.7,4.3,2,.6,10.3,3.4,11.6,4.3,7.1,4.6,4.4,10-2.2,13.1-9.9,4.5-32.5,7.9-43.6,8.6-27.2,1.6-70.3,1.7-95.5-8.2-3.5-1.4-9.7-5.1-7.6-9.6.5-1,4.9-4.3,6-4.8,2.3-1,8-2.7,10.6-3.5,3.8-1,13.7-1.5,15.2-5.1.8-2-.4-11.8-1.9-13.4-2.1-2.2-12.4-1-15.9-1.3-6.8-.5-11.4-2.1-17.6-3.4-10.3-2.2-23.9-2.8-30.5-12.2-13.1-18.7-20.5-72,4.1-84.5,19.6-9.9,31,4.7,35.2,22.3,3.2,13.5.2,29.5,13.2,38.9,3.6,2.6,7,4.2,5.8-2-1.6-8.4-6.8-19-9-27.8-5.4-20.4-10.3-50.2-9.1-71.2,1.4-25.9,25.5-51.7,51.5-53.6,19.7-1.4,35,1.8,48.9,16.3,15.8,16.6,19.2,46.9,20,69.1.3,8.9-.8,18.1.6,26.8,4.5,3.1,15.5-7.9,18.2-11.2,7.2-8.7,5.9-22,8.9-32.5,4.1-14.4,11-25.2,28-23.5,10.2,1.1,16.9,10.4,20.2,19.3,3.6,10,2.7,39.8,0,50.3Z"/>
      <path class="st0" d="M1066.3-670.2c-1.2-1.6-2.6-1.8-4.4-2-10.4-1-21.5.4-31.9.7-3.3.1-9.6-2.7-9.8,3.5-.2,6.8,1.6,15.9.5,22.8-.2,1-.7,3-2.1,2.9-1.1-.1-8.5-8.6-10.3-10.1-18.7-16.6-43.1-24-68-23.4-105.5,2.9-132.5,152-56.5,211.4,36.5,28.6,92.6,26.8,126.7-5,1.7-1.6,6.5-9,8.5-8.6,1.2,1,1.5,2.7,1.6,4.1.6,5.4,0,12.8,0,18.4,0,2.5-1.5,4.9,1.2,7h43.3l1.1-1.4-.2-220.5ZM1020.1-547.1c-5.7,42.1-43.8,73.6-86.5,59.2-66.6-22.4-59.8-141,13.2-146.5,50.8-3.8,79.6,39.9,73.3,87.3Z"/>
      <path class="st0" d="M1295.5-468.4c5.4,6,11.6,11.4,16.8,17.6.5,1.8-1.7,3-3.4,2.7-17-1.3-36.1,1.5-52.9,0-3.7-.3-5.2-2.5-7.6-5.1-6.1-6.4-11.2-14-16.9-20.7-11.2-13.1-22.6-25.8-33.7-38.9-3-3.5-22.7-28.9-25.2-28.3-2.8,2.3-1,5.1-1,8,.2,26.7-.2,53.5,0,80.3,0,2.2-1,4.8-3.5,4.8-12.1-1.1-26.4,1.3-38.3,0-6-.7-4.1-4.8-4.1-8.6-.2-95.9,0-191.9-.1-287.8-.2-2.7,1.7-3.9,4.2-4.1,11.8-1.4,26.2,1.1,38.3,0,1.8,0,2.8,1.4,3.3,3.1v166c.7,5.1,4.8-.1,6.5-2,4.7-5.2,8.9-11.1,13.4-16.5,17.2-21,34-42.4,51.6-63,3.6-4.3,6.2-11.1,13-11.1,17.3,1,35.8-1.2,52.9,0,1.2.1,2.3.2,3.4.7,1.1,3.3-1.2,3.2-2.4,4.7-5.7,6.8-11.6,13.5-17.5,20.1-25.5,28.5-51.9,56.3-77.4,84.9-1,1.3-1,3.2,0,4.5,23.7,25.5,47.3,51.2,70.7,77,3.3,3.6,6.5,8.1,9.9,11.8Z"/>
      <path class="st0" d="M1704.7-568.5c-.9-.7-2.3-19-3-22.2-15.4-72.4-98.3-104.9-162.5-72.7-78.3,39.3-78.7,165.6-1.9,206.5,63.7,34,148.5-1,164.4-72.7,1.5-6.8,1.4-14.4,2.8-21.3l2-.7v-16.5c-.1-.7-1.4-.1-1.7-.5ZM1655.2-535.9c-9.7,37.1-46.6,60.3-84.2,48.6-64-19.9-59-141.6,13.7-147.1,56.5-4.2,83.5,48.3,70.5,98.5Z"/>
      <path class="st0" d="M808.3-511.2c-12.6,40.1-51.5,65.7-92.7,67-75.4,2.4-118.7-53.8-114.3-126.4,3.6-60.1,45.6-104.4,106.8-105.2,41-.5,78.7,17.3,96.1,55.7,1.1,2.5,4.5,11.5,4.7,13.8.1,2.1.2,4.3-2.3,4.8l-43.1-.2c-4.4-.9-4.2-4.5-5.9-7.5-12.8-22.8-35.6-30.5-60.9-25.8-22.5,4.2-38.7,21.2-44.7,43.1-9.5,34.9-4.3,88.1,33.3,103.9,27,11.4,58.5,3.3,72.5-23,1.6-3.1,1.2-6.4,5.8-7.6l44.3.3c2.3,2.1,1.3,4.4.4,6.9Z"/>
      <path class="st0" d="M1453-456.6c-.1,2.9,2.4,6.5-1.8,8.3-17.2-.6-37.4,2.4-54.2-1.3-27.5-6.2-41-23.5-42.6-51.6-2.4-40.4.9-83.2-.7-124.2,0-1.5.8-2.9.7-4.4-.8-8.6-21.3-.8-25.8-5.4.2-10.4-1.4-22.7-.3-32.9.2-2.4.6-3.2,3-4,5.4,0,10.9,1,16.4.5,4.3-.4,6.3-.7,6.8-5.3,1-11.4.2-27.1,0-38.9,0-4.1-2.6-9.7,3-11.6,12,.6,25.6-1.3,37.5-.2,3.6.3,4.4,1.1,4.8,4.8,1.4,15-1.1,32,0,47.2.8,6,9.8,3.5,13.7,3.4,9.7-.1,19.6.8,29.3.7,2,0,3.5-.8,5.7-.7,7.8.5,4.6,6.8,4.8,11.8.2,7.2,1.5,15,.7,22.2-.7,6.4-6.5,4.1-10.5,4.1-10.4,0-21,0-31.2,0-3,0-10.6-.7-12,2.5l-.4,123.2c2.3,29.7,29.6,19,49.4,21.3,1.2.2,2.8.6,3.5,1.6.5.7,1.2,9.6,1.3,11.5.3,6-.6,11.5-.7,17.2Z"/>
    </g>
  </g>
  <g id="PVTPbe2" data-name="PVTPbe">
    <g>
      <path class="st1" d="M2427.8-750.9c-74.8-.8-150,1.6-225,.5-29,3.8-47.6,25.6-49.4,54.4v229.3c.7,27.1,21.4,51.2,48.7,53.8h234.3c27.6-2.1,48.2-26.8,49.4-53.8v-227.4c-1.3-33.4-24.6-56.4-58.1-56.8ZM2443.2-584.6c-2.6,9.9-8.9,19.3-18.2,23.8-12.9,6.2-36.3,6.7-50.8,7.7-2.9.2-7.4.3-8.3,3.2-3,9.5-2,26.2-2.9,36.6-.5,5.7-2.3,12.4-2.5,17.9-.1,1.8-.1,3.8,1.3,5.1,2.2,2.3,12.8,3.2,16.7,4.3,2,.6,10.3,3.4,11.6,4.3,7.1,4.6,4.4,10-2.2,13.1-9.9,4.5-32.5,7.9-43.6,8.6-27.2,1.6-70.3,1.7-95.5-8.2-3.5-1.4-9.7-5.1-7.6-9.6.5-1,4.9-4.3,6-4.8,2.3-1,8-2.7,10.6-3.5,3.8-1,13.7-1.5,15.2-5.1.8-2-.4-11.8-1.9-13.4-2.1-2.2-12.4-1-15.9-1.3-6.8-.5-11.4-2.1-17.6-3.4-10.3-2.2-23.9-2.8-30.5-12.2-13.1-18.7-20.5-72,4.1-84.5,19.6-9.9,31,4.7,35.2,22.3,3.2,13.5.2,29.5,13.2,38.9,3.6,2.6,7,4.2,5.8-2-1.6-8.4-6.8-19-9-27.8-5.4-20.4-10.3-50.2-9.1-71.2,1.4-25.9,25.5-51.7,51.5-53.6,19.7-1.4,35,1.8,48.9,16.3,15.8,16.6,19.2,46.9,20,69.1.3,8.9-.8,18.1.6,26.8,4.5,3.1,15.5-7.9,18.2-11.2,7.2-8.7,5.9-22,8.9-32.5,4.1-14.4,11-25.2,28-23.5,10.2,1.1,16.9,10.4,20.2,19.3,3.6,10,2.7,39.8,0,50.3Z"/>
      <path class="st1" d="M3006.3-670.2c-1.2-1.6-2.6-1.8-4.4-2-10.4-1-21.5.4-31.9.7-3.3.1-9.6-2.7-9.8,3.5-.2,6.8,1.6,15.9.5,22.8-.2,1-.7,3-2.1,2.9-1.1-.1-8.5-8.6-10.3-10.1-18.7-16.6-43.1-24-68-23.4-105.5,2.9-132.5,152-56.5,211.4,36.5,28.6,92.6,26.8,126.7-5,1.7-1.6,6.5-9,8.5-8.6,1.2,1,1.5,2.7,1.6,4.1.6,5.4,0,12.8,0,18.4,0,2.5-1.5,4.9,1.2,7h43.3l1.1-1.4-.2-220.5ZM2960.1-547.1c-5.7,42.1-43.8,73.6-86.5,59.2-66.6-22.4-59.8-141,13.2-146.5,50.8-3.8,79.6,39.9,73.3,87.3Z"/>
      <path class="st1" d="M3235.5-468.4c5.4,6,11.6,11.4,16.8,17.6.5,1.8-1.7,3-3.4,2.7-17-1.3-36.1,1.5-52.9,0-3.7-.3-5.2-2.5-7.6-5.1-6.1-6.4-11.2-14-16.9-20.7-11.2-13.1-22.6-25.8-33.7-38.9-3-3.5-22.7-28.9-25.2-28.3-2.8,2.3-1,5.1-1,8,.2,26.7-.2,53.5,0,80.3,0,2.2-1,4.8-3.5,4.8-12.1-1.1-26.4,1.3-38.3,0-6-.7-4.1-4.8-4.1-8.6-.2-95.9,0-191.9-.1-287.8-.2-2.7,1.7-3.9,4.2-4.1,11.8-1.4,26.2,1.1,38.3,0,1.8,0,2.8,1.4,3.3,3.1v166c.7,5.1,4.8-.1,6.5-2,4.7-5.2,8.9-11.1,13.4-16.5,17.2-21,34-42.4,51.6-63,3.6-4.3,6.2-11.1,13-11.1,17.3,1,35.8-1.2,52.9,0,1.2.1,2.3.2,3.4.7,1.1,3.3-1.2,3.2-2.4,4.7-5.7,6.8-11.6,13.5-17.5,20.1-25.5,28.5-51.9,56.3-77.4,84.9-1,1.3-1,3.2,0,4.5,23.7,25.5,47.3,51.2,70.7,77,3.3,3.6,6.5,8.1,9.9,11.8Z"/>
      <path class="st1" d="M3644.7-568.5c-.9-.7-2.3-19-3-22.2-15.4-72.4-98.3-104.9-162.5-72.7-78.3,39.3-78.7,165.6-1.9,206.5,63.7,34,148.5-1,164.4-72.7,1.5-6.8,1.4-14.4,2.8-21.3l2-.7v-16.5c-.1-.7-1.4-.1-1.7-.5ZM3595.2-535.9c-9.7,37.1-46.6,60.3-84.2,48.6-64-19.9-59-141.6,13.7-147.1,56.5-4.2,83.5,48.3,70.5,98.5Z"/>
      <path class="st1" d="M2748.3-511.2c-12.6,40.1-51.5,65.7-92.7,67-75.4,2.4-118.7-53.8-114.3-126.4,3.6-60.1,45.6-104.4,106.8-105.2,41-.5,78.7,17.3,96.1,55.7,1.1,2.5,4.5,11.5,4.7,13.8.1,2.1.2,4.3-2.3,4.8l-43.1-.2c-4.4-.9-4.2-4.5-5.9-7.5-12.8-22.8-35.6-30.5-60.9-25.8-22.5,4.2-38.7,21.2-44.7,43.1-9.5,34.9-4.3,88.1,33.3,103.9,27,11.4,58.5,3.3,72.5-23,1.6-3.1,1.2-6.4,5.8-7.6l44.3.3c2.3,2.1,1.3,4.4.4,6.9Z"/>
      <path class="st1" d="M3393-456.6c-.1,2.9,2.4,6.5-1.8,8.3-17.2-.6-37.4,2.4-54.2-1.3-27.5-6.2-41-23.5-42.6-51.6-2.4-40.4.9-83.2-.7-124.2,0-1.5.8-2.9.7-4.4-.8-8.6-21.3-.8-25.8-5.4.2-10.4-1.4-22.7-.3-32.9.2-2.4.6-3.2,3-4,5.4,0,10.9,1,16.4.5,4.3-.4,6.3-.7,6.8-5.3,1-11.4.2-27.1,0-38.9,0-4.1-2.6-9.7,3-11.6,12,.6,25.6-1.3,37.5-.2,3.6.3,4.4,1.1,4.8,4.8,1.4,15-1.1,32,0,47.2.8,6,9.8,3.5,13.7,3.4,9.7-.1,19.6.8,29.3.7,2,0,3.5-.8,5.7-.7,7.8.5,4.6,6.8,4.8,11.8.2,7.2,1.5,15,.7,22.2-.7,6.4-6.5,4.1-10.5,4.1-10.4,0-21,0-31.2,0-3,0-10.6-.7-12,2.5l-.4,123.2c2.3,29.7,29.6,19,49.4,21.3,1.2.2,2.8.6,3.5,1.6.5.7,1.2,9.6,1.3,11.5.3,6-.6,11.5-.7,17.2Z"/>
    </g>
  </g>
  <g id="PVTPbe3" data-name="PVTPbe">
    <g>
      <path class="st0" d="M4367.8-750.9c-74.8-.8-150,1.6-225,.5-29,3.8-47.6,25.6-49.4,54.4v229.3c.7,27.1,21.4,51.2,48.7,53.8h234.3c27.6-2.1,48.2-26.8,49.4-53.8v-227.4c-1.3-33.4-24.6-56.4-58.1-56.8ZM4383.2-584.6c-2.6,9.9-8.9,19.3-18.2,23.8-12.9,6.2-36.3,6.7-50.8,7.7-2.9.2-7.4.3-8.3,3.2-3,9.5-2,26.2-2.9,36.6-.5,5.7-2.3,12.4-2.5,17.9-.1,1.8-.1,3.8,1.3,5.1,2.2,2.3,12.8,3.2,16.7,4.3,2,.6,10.3,3.4,11.6,4.3,7.1,4.6,4.4,10-2.2,13.1-9.9,4.5-32.5,7.9-43.6,8.6-27.2,1.6-70.3,1.7-95.5-8.2-3.5-1.4-9.7-5.1-7.6-9.6.5-1,4.9-4.3,6-4.8,2.3-1,8-2.7,10.6-3.5,3.8-1,13.7-1.5,15.2-5.1.8-2-.4-11.8-1.9-13.4-2.1-2.2-12.4-1-15.9-1.3-6.8-.5-11.4-2.1-17.6-3.4-10.3-2.2-23.9-2.8-30.5-12.2-13.1-18.7-20.5-72,4.1-84.5,19.6-9.9,31,4.7,35.2,22.3,3.2,13.5.2,29.5,13.2,38.9,3.6,2.6,7,4.2,5.8-2-1.6-8.4-6.8-19-9-27.8-5.4-20.4-10.3-50.2-9.1-71.2,1.4-25.9,25.5-51.7,51.5-53.6,19.7-1.4,35,1.8,48.9,16.3,15.8,16.6,19.2,46.9,20,69.1.3,8.9-.8,18.1.6,26.8,4.5,3.1,15.5-7.9,18.2-11.2,7.2-8.7,5.9-22,8.9-32.5,4.1-14.4,11-25.2,28-23.5,10.2,1.1,16.9,10.4,20.2,19.3,3.6,10,2.7,39.8,0,50.3Z"/>
      <path class="st1" d="M4946.3-670.2c-1.2-1.6-2.6-1.8-4.4-2-10.4-1-21.5.4-31.9.7-3.3.1-9.6-2.7-9.8,3.5-.2,6.8,1.6,15.9.5,22.8-.2,1-.7,3-2.1,2.9-1.1-.1-8.5-8.6-10.3-10.1-18.7-16.6-43.1-24-68-23.4-105.5,2.9-132.5,152-56.5,211.4,36.5,28.6,92.6,26.8,126.7-5,1.7-1.6,6.5-9,8.5-8.6,1.2,1,1.5,2.7,1.6,4.1.6,5.4,0,12.8,0,18.4,0,2.5-1.5,4.9,1.2,7h43.3l1.1-1.4-.2-220.5ZM4900.1-547.1c-5.7,42.1-43.8,73.6-86.5,59.2-66.6-22.4-59.8-141,13.2-146.5,50.8-3.8,79.6,39.9,73.3,87.3Z"/>
      <path class="st1" d="M5175.5-468.4c5.4,6,11.6,11.4,16.8,17.6.5,1.8-1.7,3-3.4,2.7-17-1.3-36.1,1.5-52.9,0-3.7-.3-5.2-2.5-7.6-5.1-6.1-6.4-11.2-14-16.9-20.7-11.2-13.1-22.6-25.8-33.7-38.9-3-3.5-22.7-28.9-25.2-28.3-2.8,2.3-1,5.1-1,8,.2,26.7-.2,53.5,0,80.3,0,2.2-1,4.8-3.5,4.8-12.1-1.1-26.4,1.3-38.3,0-6-.7-4.1-4.8-4.1-8.6-.2-95.9,0-191.9-.1-287.8-.2-2.7,1.7-3.9,4.2-4.1,11.8-1.4,26.2,1.1,38.3,0,1.8,0,2.8,1.4,3.3,3.1v166c.7,5.1,4.8-.1,6.5-2,4.7-5.2,8.9-11.1,13.4-16.5,17.2-21,34-42.4,51.6-63,3.6-4.3,6.2-11.1,13-11.1,17.3,1,35.8-1.2,52.9,0,1.2.1,2.3.2,3.4.7,1.1,3.3-1.2,3.2-2.4,4.7-5.7,6.8-11.6,13.5-17.5,20.1-25.5,28.5-51.9,56.3-77.4,84.9-1,1.3-1,3.2,0,4.5,23.7,25.5,47.3,51.2,70.7,77,3.3,3.6,6.5,8.1,9.9,11.8Z"/>
      <path class="st1" d="M5584.7-568.5c-.9-.7-2.3-19-3-22.2-15.4-72.4-98.3-104.9-162.5-72.7-78.3,39.3-78.7,165.6-1.9,206.5,63.7,34,148.5-1,164.4-72.7,1.5-6.8,1.4-14.4,2.8-21.3l2-.7v-16.5c-.1-.7-1.4-.1-1.7-.5ZM5535.2-535.9c-9.7,37.1-46.6,60.3-84.2,48.6-64-19.9-59-141.6,13.7-147.1,56.5-4.2,83.5,48.3,70.5,98.5Z"/>
      <path class="st1" d="M4688.3-511.2c-12.6,40.1-51.5,65.7-92.7,67-75.4,2.4-118.7-53.8-114.3-126.4,3.6-60.1,45.6-104.4,106.8-105.2,41-.5,78.7,17.3,96.1,55.7,1.1,2.5,4.5,11.5,4.7,13.8.1,2.1.2,4.3-2.3,4.8l-43.1-.2c-4.4-.9-4.2-4.5-5.9-7.5-12.8-22.8-35.6-30.5-60.9-25.8-22.5,4.2-38.7,21.2-44.7,43.1-9.5,34.9-4.3,88.1,33.3,103.9,27,11.4,58.5,3.3,72.5-23,1.6-3.1,1.2-6.4,5.8-7.6l44.3.3c2.3,2.1,1.3,4.4.4,6.9Z"/>
      <path class="st1" d="M5333-456.6c-.1,2.9,2.4,6.5-1.8,8.3-17.2-.6-37.4,2.4-54.2-1.3-27.5-6.2-41-23.5-42.6-51.6-2.4-40.4.9-83.2-.7-124.2,0-1.5.8-2.9.7-4.4-.8-8.6-21.3-.8-25.8-5.4.2-10.4-1.4-22.7-.3-32.9.2-2.4.6-3.2,3-4,5.4,0,10.9,1,16.4.5,4.3-.4,6.3-.7,6.8-5.3,1-11.4.2-27.1,0-38.9,0-4.1-2.6-9.7,3-11.6,12,.6,25.6-1.3,37.5-.2,3.6.3,4.4,1.1,4.8,4.8,1.4,15-1.1,32,0,47.2.8,6,9.8,3.5,13.7,3.4,9.7-.1,19.6.8,29.3.7,2,0,3.5-.8,5.7-.7,7.8.5,4.6,6.8,4.8,11.8.2,7.2,1.5,15,.7,22.2-.7,6.4-6.5,4.1-10.5,4.1-10.4,0-21,0-31.2,0-3,0-10.6-.7-12,2.5l-.4,123.2c2.3,29.7,29.6,19,49.4,21.3,1.2.2,2.8.6,3.5,1.6.5.7,1.2,9.6,1.3,11.5.3,6-.6,11.5-.7,17.2Z"/>
    </g>
  </g>
  <g id="PVTPbe4" data-name="PVTPbe">
    <path class="st1" d="M1908,121.4c-185.5-2.1-371.8,3.9-557.5,1.2-71.9,9.3-117.9,63.4-122.3,134.8v568.3c1.8,67.2,53,126.9,120.8,133.3h580.7c68.5-5.1,119.6-66.4,122.3-133.3V262.1c-3.1-82.8-60.9-139.7-143.9-140.7ZM1946.1,533.6c-6.5,24.5-22,47.8-45.2,59.1-32.1,15.5-90,16.6-126,19-7.1.5-18.3.7-20.6,7.9-7.5,23.6-4.8,64.8-7.1,90.8-1.2,14.1-5.8,30.6-6.3,44.3-.3,4.5-.3,9.3,3.1,12.7,5.5,5.6,31.8,7.9,41.4,10.6,5,1.4,25.5,8.4,28.8,10.6,17.5,11.4,10.9,24.9-5.5,32.3-24.6,11.3-80.5,19.6-108.1,21.2-67.3,3.9-174.3,4.2-236.8-20.3-8.8-3.5-24-12.6-18.9-23.8,1.2-2.4,12.2-10.6,14.9-11.8,5.8-2.5,19.8-6.8,26.2-8.6,9.4-2.5,33.9-3.7,37.7-12.7,2.1-5-.9-29.2-4.7-33.1-5.2-5.5-30.6-2.5-39.4-3.1-16.9-1.2-28.3-5.2-43.6-8.4-25.4-5.4-59.2-6.9-75.6-30.3-32.5-46.4-50.8-178.4,10.1-209.4,48.6-24.6,76.9,11.7,87.4,55.3,8,33.4.4,73.1,32.7,96.5,9,6.5,17.3,10.3,14.3-4.8-3.9-20.8-16.8-47.1-22.4-68.9-13.4-50.6-25.4-124.4-22.7-176.4,3.4-64.3,63.3-128.1,127.6-132.8,48.7-3.5,86.7,4.5,121.1,40.5,39.2,41.1,47.5,116.3,49.6,171.3.8,22-2,44.8,1.4,66.4,11.1,7.7,38.5-19.6,45.1-27.8,17.8-21.6,14.7-54.5,22-80.5,10.2-35.8,27.4-62.3,69.3-58.2,25.3,2.6,41.9,25.8,50,47.9,8.9,24.8,6.7,98.8-.1,124.7Z"/>
  </g>
  <g id="PVTPbe5" data-name="PVTPbe">
    <path d="M3008,121.4c-185.5-2.1-371.8,3.9-557.5,1.2-71.9,9.3-117.9,63.4-122.3,134.8v568.3c1.8,67.2,53,126.9,120.8,133.3h580.7c68.5-5.1,119.6-66.4,122.3-133.3V262.1c-3.1-82.8-60.9-139.7-143.9-140.7ZM3046.1,533.6c-6.5,24.5-22,47.8-45.2,59.1-32.1,15.5-90,16.6-126,19-7.1.5-18.3.7-20.6,7.9-7.5,23.6-4.8,64.8-7.1,90.8-1.2,14.1-5.8,30.6-6.3,44.3-.3,4.5-.3,9.3,3.1,12.7,5.5,5.6,31.8,7.9,41.4,10.6,5,1.4,25.5,8.4,28.8,10.6,17.5,11.4,10.9,24.9-5.5,32.3-24.6,11.3-80.5,19.6-108.1,21.2-67.3,3.9-174.3,4.2-236.8-20.3-8.8-3.5-24-12.6-18.9-23.8,1.2-2.4,12.2-10.6,14.9-11.8,5.8-2.5,19.8-6.8,26.2-8.6,9.4-2.5,33.9-3.7,37.7-12.7,2.1-5-.9-29.2-4.7-33.1-5.2-5.5-30.6-2.5-39.4-3.1-16.9-1.2-28.3-5.2-43.6-8.4-25.4-5.4-59.2-6.9-75.6-30.3-32.5-46.4-50.8-178.4,10.1-209.4,48.6-24.6,76.9,11.7,87.4,55.3,8,33.4.4,73.1,32.7,96.5,9,6.5,17.3,10.3,14.3-4.8-3.9-20.8-16.8-47.1-22.4-68.9-13.4-50.6-25.4-124.4-22.7-176.4,3.4-64.3,63.3-128.1,127.6-132.8,48.7-3.5,86.7,4.5,121.1,40.5,39.2,41.1,47.5,116.3,49.6,171.3.8,22-2,44.8,1.4,66.4,11.1,7.7,38.5-19.6,45.1-27.8,17.8-21.6,14.7-54.5,22-80.5,10.2-35.8,27.4-62.3,69.3-58.2,25.3,2.6,41.9,25.8,50,47.9,8.9,24.8,6.7,98.8-.1,124.7Z"/>
  </g>
</svg>